ffmpeg version 4.4 Copyright (c) 2000-2021 the FFmpeg developers
  built with gcc 10 (Debian 10.2.1-6)
  configuration: --disable-decoder=amrnb --disable-decoder=libopenjpeg --disable-gnutls --disable-liblensfun --disable-libopencv --disable-podpages --disable-sndio --disable-stripping --enable-avfilter --enable-avresample --enable-gcrypt --enable-gpl --enable-ladspa --enable-libaom --enable-libaribb24 --enable-libass --enable-libbluray --enable-libbs2b --enable-libcaca --enable-libcdio --enable-libcodec2 --enable-libdav1d --enable-libdavs2 --enable-libdc1394 --enable-libfdk-aac --enable-libflite --enable-libfontconfig --enable-libfreetype --enable-libfribidi --enable-libgme --enable-libgsm --enable-libiec61883 --enable-libjack --enable-libkvazaar --enable-libmp3lame --enable-libmysofa --enable-libopencore-amrnb --enable-libopencore-amrwb --enable-libopenh264 --enable-libopenjpeg --enable-libopenmpt --enable-libopus --enable-libpulse --enable-librabbitmq --enable-librist --enable-librsvg --enable-librubberband --enable-libshine --enable-libsnappy --enable-libsoxr --enable-libspeex --enable-libsrt --enable-libtesseract --enable-libtheora --enable-libtwolame --enable-libvidstab --enable-libvo-amrwbenc --enable-libvorbis --enable-libvpx --enable-libwebp --enable-libwebp --enable-libx265 --enable-libxavs2 --enable-libxml2 --enable-libxvid --enable-libzimg --enable-libzmq --enable-libzvbi --enable-lv2 --enable-nonfree --enable-openal --enable-opencl --enable-opengl --enable-openssl --enable-postproc --enable-pthreads --enable-shared --enable-version3 --enable-vulkan --incdir=/usr/include/x86_64-linux-gnu --libdir=/usr/lib/x86_64-linux-gnu --prefix=/usr --toolchain=hardened --enable-frei0r --enable-chromaprint --enable-libx264 --enable-vaapi --enable-libmfx --enable-libvmaf --enable-libsvtav1 --enable-libilbc --disable-altivec --shlibdir=/usr/lib/x86_64-linux-gnu
  libavutil      56. 70.100 / 56. 70.100
  libavcodec     58.134.100 / 58.134.100
  libavformat    58. 76.100 / 58. 76.100
  libavdevice    58. 13.100 / 58. 13.100
  libavfilter     7.110.100 /  7.110.100
  libavresample   4.  0.  0 /  4.  0.  0
  libswscale      5.  9.100 /  5.  9.100
  libswresample   3.  9.100 /  3.  9.100
  libpostproc    55.  9.100 / 55.  9.100
Input #0, lavfi, from 'color':
  Duration: N/A, start: 0.000000, bitrate: N/A
  Stream #0:0: Video: rawvideo (I420 / 0x30323449), yuv420p, 320x240 [SAR 1:1 DAR 4:3], 25 tbr, 25 tbn, 25 tbc
Stream mapping:
  Stream #0:0 -> #0:0 (rawvideo (native) -> h264 (libx264))
Press [q] to stop, [?] for help
[libx264 @ 0x7fffd39ff000] using SAR=1/1
[libx264 @ 0x7fffd39ff000] using cpu capabilities: MMX2 SSE2Fast SSSE3 SSE4.2 AVX FMA3 BMI2 AVX2
[libx264 @ 0x7fffd39ff000] profile Constrained Baseline, level 1.3, 4:2:0, 8-bit
[libx264 @ 0x7fffd39ff000] 264 - core 164 - H.264/MPEG-4 AVC codec - Copyleft 2003-2021 - http://www.videolan.org/x264.html - options: cabac=0 ref=1 deblock=0:0:0 analyse=0:0 me=dia subme=0 psy=1 psy_rd=1.00:0.00 mixed_ref=0 me_range=16 chroma_me=1 trellis=0 8x8dct=0 cqm=0 deadzone=21,11 fast_pskip=1 chroma_qp_offset=0 threads=1 lookahead_threads=1 sliced_threads=0 nr=0 decimate=1 interlaced=0 bluray_compat=0 constrained_intra=0 bframes=0 weightp=0 keyint=250 keyint_min=25 scenecut=0 intra_refresh=0 rc=crf mbtree=0 crf=16.0 qcomp=0.60 qpmin=0 qpmax=69 qpstep=4 ip_ratio=1.40 aq=0
Output #0, matroska, to 'output/ultrafast.mkv':
  Metadata:
    encoder         : Lavf58.76.100
  Stream #0:0: Video: h264 (H264 / 0x34363248), yuv420p(progressive), 320x240 [SAR 1:1 DAR 4:3], q=2-31, 25 fps, 1k tbn
    Metadata:
      encoder         : Lavc58.134.100 libx264
    Side data:
      cpb: bitrate max/min/avg: 0/0/0 buffer size: 0 vbv_delay: N/A
frame=    1 fps=0.0 q=0.0 size=       1kB time=00:00:00.00 bitrate=N/A speed=   0x    frame=   25 fps=0.0 q=5.0 Lsize=       2kB time=00:00:00.96 bitrate=  15.7kbits/s speed=60.8x    
video:1kB audio:0kB subtitle:0kB other streams:0kB global headers:0kB muxing overhead: 72.161171%
[libx264 @ 0x7fffd39ff000] frame I:1     Avg QP:13.00  size:   243
[libx264 @ 0x7fffd39ff000] frame P:24    Avg QP: 5.04  size:    11
[libx264 @ 0x7fffd39ff000] mb I  I16..4: 100.0%  0.0%  0.0%
[libx264 @ 0x7fffd39ff000] mb P  I16..4:  0.0%  0.0%  0.0%  P16..4:  0.0%  0.0%  0.0%  0.0%  0.0%    skip:100.0%
[libx264 @ 0x7fffd39ff000] coded y,uvDC,uvAC intra: 0.0% 0.0% 0.0% inter: 0.0% 0.0% 0.0%
[libx264 @ 0x7fffd39ff000] i16 v,h,dc,p: 93%  0%  7%  0%
[libx264 @ 0x7fffd39ff000] i8c dc,h,v,p: 100%  0%  0%  0%
[libx264 @ 0x7fffd39ff000] kb/s:4.06
